<mxfile host="app.diagrams.net" modified="2023-11-06T09:17:52.293Z" agent="Mozilla/5.0 (Windows NT 10.0; Win64; x64) AppleWebKit/537.36 (KHTML, like Gecko) Chrome/118.0.0.0 Safari/537.36" version="22.0.8" etag="UK7Az6md9-tQSeIg96ku" type="device">
  <diagram id="C5RBs43oDa-KdzZeNtuy" name="Page-1">
    <mxGraphModel dx="794" dy="480" grid="1" gridSize="10" guides="1" tooltips="1" connect="1" arrows="1" fold="1" page="1" pageScale="1" pageWidth="827" pageHeight="1169" math="0" shadow="0">
      <root>
        <mxCell id="WIyWlLk6GJQsqaUBKTNV-0" />
        <mxCell id="WIyWlLk6GJQsqaUBKTNV-1" parent="WIyWlLk6GJQsqaUBKTNV-0" />
        <mxCell id="V0JxX-7dsEBTN_loPIn3-2" value="" style="edgeStyle=orthogonalEdgeStyle;rounded=0;orthogonalLoop=1;jettySize=auto;html=1;labelBackgroundColor=none;strokeColor=#788AA3;fontColor=default;" edge="1" parent="WIyWlLk6GJQsqaUBKTNV-1" source="V0JxX-7dsEBTN_loPIn3-0" target="V0JxX-7dsEBTN_loPIn3-1">
          <mxGeometry relative="1" as="geometry" />
        </mxCell>
        <mxCell id="V0JxX-7dsEBTN_loPIn3-0" value="Start" style="ellipse;whiteSpace=wrap;html=1;labelBackgroundColor=none;fillColor=#B2C9AB;strokeColor=#788AA3;fontColor=#46495D;" vertex="1" parent="WIyWlLk6GJQsqaUBKTNV-1">
          <mxGeometry x="220" y="10" width="120" height="70" as="geometry" />
        </mxCell>
        <mxCell id="V0JxX-7dsEBTN_loPIn3-4" value="" style="edgeStyle=none;curved=1;rounded=0;orthogonalLoop=1;jettySize=auto;html=1;fontSize=12;startSize=8;endSize=8;labelBackgroundColor=none;strokeColor=#788AA3;fontColor=default;" edge="1" parent="WIyWlLk6GJQsqaUBKTNV-1" source="V0JxX-7dsEBTN_loPIn3-1" target="V0JxX-7dsEBTN_loPIn3-3">
          <mxGeometry relative="1" as="geometry" />
        </mxCell>
        <mxCell id="V0JxX-7dsEBTN_loPIn3-1" value="a, b ,c" style="shape=parallelogram;perimeter=parallelogramPerimeter;whiteSpace=wrap;html=1;fixedSize=1;labelBackgroundColor=none;fillColor=#B2C9AB;strokeColor=#788AA3;fontColor=#46495D;" vertex="1" parent="WIyWlLk6GJQsqaUBKTNV-1">
          <mxGeometry x="220" y="130" width="120" height="60" as="geometry" />
        </mxCell>
        <mxCell id="V0JxX-7dsEBTN_loPIn3-8" value="" style="edgeStyle=none;curved=1;rounded=0;orthogonalLoop=1;jettySize=auto;html=1;fontSize=12;startSize=8;endSize=8;labelBackgroundColor=none;strokeColor=#788AA3;fontColor=default;" edge="1" parent="WIyWlLk6GJQsqaUBKTNV-1" source="V0JxX-7dsEBTN_loPIn3-3" target="V0JxX-7dsEBTN_loPIn3-7">
          <mxGeometry relative="1" as="geometry" />
        </mxCell>
        <mxCell id="V0JxX-7dsEBTN_loPIn3-3" value="i = Độ dài của dãy số&lt;br&gt;Kết quả =&amp;nbsp;" style="rounded=0;whiteSpace=wrap;html=1;fontSize=16;labelBackgroundColor=none;fillColor=#B2C9AB;strokeColor=#788AA3;fontColor=#46495D;" vertex="1" parent="WIyWlLk6GJQsqaUBKTNV-1">
          <mxGeometry x="220" y="250" width="120" height="60" as="geometry" />
        </mxCell>
        <mxCell id="V0JxX-7dsEBTN_loPIn3-10" value="False" style="edgeStyle=none;curved=1;rounded=0;orthogonalLoop=1;jettySize=auto;html=1;entryX=0;entryY=0.5;entryDx=0;entryDy=0;fontSize=12;startSize=8;endSize=8;labelBackgroundColor=none;strokeColor=#788AA3;fontColor=default;" edge="1" parent="WIyWlLk6GJQsqaUBKTNV-1" source="V0JxX-7dsEBTN_loPIn3-7" target="V0JxX-7dsEBTN_loPIn3-9">
          <mxGeometry relative="1" as="geometry" />
        </mxCell>
        <mxCell id="V0JxX-7dsEBTN_loPIn3-7" value="i &amp;gt; 0" style="rhombus;whiteSpace=wrap;html=1;fontSize=16;labelBackgroundColor=none;fillColor=#B2C9AB;strokeColor=#788AA3;fontColor=#46495D;" vertex="1" parent="WIyWlLk6GJQsqaUBKTNV-1">
          <mxGeometry x="225" y="370" width="110" height="80" as="geometry" />
        </mxCell>
        <mxCell id="V0JxX-7dsEBTN_loPIn3-14" value="" style="edgeStyle=none;curved=1;rounded=0;orthogonalLoop=1;jettySize=auto;html=1;fontSize=12;startSize=8;endSize=8;labelBackgroundColor=none;strokeColor=#788AA3;fontColor=default;" edge="1" parent="WIyWlLk6GJQsqaUBKTNV-1" source="V0JxX-7dsEBTN_loPIn3-9" target="V0JxX-7dsEBTN_loPIn3-13">
          <mxGeometry relative="1" as="geometry" />
        </mxCell>
        <mxCell id="V0JxX-7dsEBTN_loPIn3-9" value="Kết hợp kq với kí tự i của dãy" style="rounded=0;whiteSpace=wrap;html=1;fontSize=16;labelBackgroundColor=none;fillColor=#B2C9AB;strokeColor=#788AA3;fontColor=#46495D;" vertex="1" parent="WIyWlLk6GJQsqaUBKTNV-1">
          <mxGeometry x="520" y="380" width="170" height="60" as="geometry" />
        </mxCell>
        <mxCell id="V0JxX-7dsEBTN_loPIn3-13" value="i = i - 1" style="rounded=1;whiteSpace=wrap;html=1;fontSize=16;labelBackgroundColor=none;fillColor=#B2C9AB;strokeColor=#788AA3;fontColor=#46495D;" vertex="1" parent="WIyWlLk6GJQsqaUBKTNV-1">
          <mxGeometry x="545" y="525" width="120" height="60" as="geometry" />
        </mxCell>
        <mxCell id="V0JxX-7dsEBTN_loPIn3-19" value="" style="endArrow=none;html=1;rounded=0;fontSize=12;startSize=8;endSize=8;curved=1;labelBackgroundColor=none;strokeColor=#788AA3;fontColor=default;" edge="1" parent="WIyWlLk6GJQsqaUBKTNV-1">
          <mxGeometry width="50" height="50" relative="1" as="geometry">
            <mxPoint x="280" y="555" as="sourcePoint" />
            <mxPoint x="545" y="554.5" as="targetPoint" />
          </mxGeometry>
        </mxCell>
        <mxCell id="V0JxX-7dsEBTN_loPIn3-20" value="" style="endArrow=classic;html=1;rounded=0;fontSize=12;startSize=8;endSize=8;curved=1;entryX=0.5;entryY=1;entryDx=0;entryDy=0;labelBackgroundColor=none;strokeColor=#788AA3;fontColor=default;" edge="1" parent="WIyWlLk6GJQsqaUBKTNV-1" target="V0JxX-7dsEBTN_loPIn3-7">
          <mxGeometry width="50" height="50" relative="1" as="geometry">
            <mxPoint x="279.5" y="550" as="sourcePoint" />
            <mxPoint x="279.5" y="480" as="targetPoint" />
          </mxGeometry>
        </mxCell>
        <mxCell id="V0JxX-7dsEBTN_loPIn3-21" value="" style="endArrow=none;html=1;rounded=0;fontSize=12;startSize=8;endSize=8;curved=1;labelBackgroundColor=none;strokeColor=#788AA3;fontColor=default;" edge="1" parent="WIyWlLk6GJQsqaUBKTNV-1">
          <mxGeometry width="50" height="50" relative="1" as="geometry">
            <mxPoint x="155" y="409.5" as="sourcePoint" />
            <mxPoint x="225" y="409.5" as="targetPoint" />
          </mxGeometry>
        </mxCell>
        <mxCell id="V0JxX-7dsEBTN_loPIn3-22" value="True" style="endArrow=classic;html=1;rounded=0;fontSize=12;startSize=8;endSize=8;curved=1;labelBackgroundColor=none;strokeColor=#788AA3;fontColor=default;" edge="1" parent="WIyWlLk6GJQsqaUBKTNV-1">
          <mxGeometry width="50" height="50" relative="1" as="geometry">
            <mxPoint x="160" y="410" as="sourcePoint" />
            <mxPoint x="160" y="620" as="targetPoint" />
          </mxGeometry>
        </mxCell>
        <mxCell id="V0JxX-7dsEBTN_loPIn3-25" value="" style="edgeStyle=none;curved=1;rounded=0;orthogonalLoop=1;jettySize=auto;html=1;fontSize=12;startSize=8;endSize=8;labelBackgroundColor=none;strokeColor=#788AA3;fontColor=default;" edge="1" parent="WIyWlLk6GJQsqaUBKTNV-1" source="V0JxX-7dsEBTN_loPIn3-23" target="V0JxX-7dsEBTN_loPIn3-24">
          <mxGeometry relative="1" as="geometry" />
        </mxCell>
        <mxCell id="V0JxX-7dsEBTN_loPIn3-23" value="Xuất kết quả" style="shape=parallelogram;perimeter=parallelogramPerimeter;whiteSpace=wrap;html=1;fixedSize=1;fontSize=16;labelBackgroundColor=none;fillColor=#B2C9AB;strokeColor=#788AA3;fontColor=#46495D;" vertex="1" parent="WIyWlLk6GJQsqaUBKTNV-1">
          <mxGeometry x="100" y="620" width="120" height="60" as="geometry" />
        </mxCell>
        <mxCell id="V0JxX-7dsEBTN_loPIn3-24" value="End" style="ellipse;whiteSpace=wrap;html=1;fontSize=16;labelBackgroundColor=none;fillColor=#B2C9AB;strokeColor=#788AA3;fontColor=#46495D;" vertex="1" parent="WIyWlLk6GJQsqaUBKTNV-1">
          <mxGeometry x="340" y="615" width="120" height="70" as="geometry" />
        </mxCell>
      </root>
    </mxGraphModel>
  </diagram>
</mxfile>
